<svg xmlns="http://www.w3.org/2000/svg" width="119.458" height="104.819" viewBox="0 0 119.458 104.819">
  <g id="Group_7631" data-name="Group 7631" transform="translate(0 -0.531)">
    <path id="Path_21" data-name="Path 21" d="M128.934,57.867v-21.8l-18.876-10.9-9.284,5.358-.313.18V63.225l1.844,1.061,7.753,4.477ZM105.1,33.388l4.958-2.859,14.237,8.217V55.188L110.057,63.4,105.1,60.546Z" transform="translate(-51.195 -13.726)" fill="#38aecb"/>
    <path id="Path_22" data-name="Path 22" d="M109.28,78.864,85.6,92.538,61.913,78.864V57.337l-4.639,2.679V81.543L85.6,97.9l28.323-16.354V60.016l-4.639-2.679Z" transform="translate(-26.734 -31.945)" fill="#38aecb"/>
    <path id="Path_23" data-name="Path 23" d="M85.6,0,71.359,8.223V1.734H66.72V10.9l-9.447,5.457v5.352l4.639-2.679,4.807-2.776V43.609l4.639,2.679V13.578L85.6,5.358,109.28,19.033l4.639,2.679V16.359Z" transform="translate(-26.733 0.532)" fill="#38aecb"/>
    <g id="Group_7628" data-name="Group 7628" transform="translate(0 74.176)">
      <g id="Group_7630" data-name="Group 7630" transform="translate(0 0)">
        <path id="Path_24" data-name="Path 24" d="M0,155.92H7.852c5.826,0,9.8,3.592,9.8,8.981s-3.977,8.981-9.8,8.981H0Zm7.7,15.14c4,0,6.595-2.438,6.595-6.159S11.7,158.743,7.7,158.743H3.336V171.06Z" transform="translate(0 -155.92)" fill="#2e3550"/>
        <path id="Path_25" data-name="Path 25" d="M55.533,171.673v2.7H42.51V157.013H55.185v2.7h-9.45v4.515h8.384v2.655H45.735v4.787Z" transform="translate(-22.099 -156.488)" fill="#2e3550"/>
        <path id="Path_26" data-name="Path 26" d="M73.428,165.327c0-5.2,3.982-8.958,9.331-8.958a8.824,8.824,0,0,1,6.893,2.912l-2.091,1.966a6.118,6.118,0,0,0-4.653-2.041,6.123,6.123,0,1,0,0,12.244,6.057,6.057,0,0,0,4.653-2.066l2.091,1.991a8.841,8.841,0,0,1-6.918,2.912c-5.325,0-9.307-3.758-9.307-8.958" transform="translate(-38.172 -156.153)" fill="#2e3550"/>
        <path id="Path_27" data-name="Path 27" d="M110.33,165.327c0-5.151,3.982-8.958,9.382-8.958s9.381,3.783,9.381,8.958-3.981,8.958-9.381,8.958-9.382-3.807-9.382-8.958m15.5,0a6.122,6.122,0,1,0-6.121,6.122,5.936,5.936,0,0,0,6.121-6.122" transform="translate(-57.356 -156.153)" fill="#2e3550"/>
        <path id="Path_28" data-name="Path 28" d="M167.435,168.582a5.569,5.569,0,0,0,3.709-5.5c0-3.854-2.838-6.194-7.415-6.194H156.56v17.418H159.8v-14.68h3.785c2.834,0,4.3,1.269,4.3,3.457s-1.469,3.484-4.3,3.484h-1.009l3.381,4.853h-.007l2.015,2.886h3.481Z" transform="translate(-81.39 -156.423)" fill="#2e3550"/>
        <rect id="Rectangle_1730" data-name="Rectangle 1730" width="3.235" height="17.419" transform="translate(94.229 0.464)" fill="#2e3550"/>
        <path id="Path_29" data-name="Path 29" d="M220.486,156.888H217.3l-7.84,17.418h3.17l3.353-7.449,2.883-6.733,2.164,5.012,4.137,9.17h3.18Z" transform="translate(-108.892 -156.423)" fill="#2e3550"/>
        <rect id="Rectangle_1731" data-name="Rectangle 1731" width="0.986" height="7.552" transform="translate(16.953 23.546)" fill="#2e3550"/>
        <path id="Path_30" data-name="Path 30" d="M46.8,204.938V212.5H45.81l-3.965-6.014V212.5h-.986v-7.563h.986l3.965,6v-6Z" transform="translate(-21.241 -181.402)" fill="#2e3550"/>
        <path id="Path_31" data-name="Path 31" d="M55.748,204.96h5.114v.8H58.8v6.75h-.986v-6.75h-2.07Z" transform="translate(-28.981 -181.414)" fill="#2e3550"/>
        <path id="Path_32" data-name="Path 32" d="M72.987,205.751H69.91v2.525h2.752v.813H69.91v2.6h3.077v.813H68.924v-7.563h4.063Z" transform="translate(-35.831 -181.403)" fill="#2e3550"/>
        <path id="Path_33" data-name="Path 33" d="M82.935,204.961c1.777,0,2.622.986,2.622,2.221a2.13,2.13,0,0,1-1.8,2.167l1.9,3.164H84.474l-1.8-3.088H81.483v3.088H80.5v-7.552Zm0,.812H81.483v2.861h1.452c1.116,0,1.6-.607,1.6-1.452s-.477-1.409-1.6-1.409" transform="translate(-41.847 -181.415)" fill="#2e3550"/>
        <rect id="Rectangle_1732" data-name="Rectangle 1732" width="0.986" height="7.552" transform="translate(45.236 23.546)" fill="#2e3550"/>
        <path id="Path_34" data-name="Path 34" d="M102.789,212.495a3.858,3.858,0,1,1,3.792-3.857,3.726,3.726,0,0,1-3.792,3.857m0-.856a3.01,3.01,0,1,0-2.785-3,2.759,2.759,0,0,0,2.785,3" transform="translate(-51.464 -181.32)" fill="#2e3550"/>
        <path id="Path_35" data-name="Path 35" d="M119.935,204.961c1.777,0,2.623.986,2.623,2.221a2.13,2.13,0,0,1-1.8,2.167l1.9,3.164h-1.181l-1.8-3.088h-1.192v3.088H117.5v-7.552Zm0,.812h-1.452v2.861h1.452c1.116,0,1.6-.607,1.6-1.452s-.477-1.409-1.6-1.409" transform="translate(-61.082 -181.415)" fill="#2e3550"/>
        <path id="Path_36" data-name="Path 36" d="M143.6,208.752c0,2.341-1.528,3.76-4.01,3.76h-2.351V204.96h2.351c2.481,0,4.01,1.451,4.01,3.792m-4.01,2.948a2.693,2.693,0,0,0,3-2.948,2.724,2.724,0,0,0-3-2.99h-1.365V211.7Z" transform="translate(-71.344 -181.414)" fill="#2e3550"/>
        <path id="Path_37" data-name="Path 37" d="M157.25,205.751h-3.077v2.525h2.752v.813h-2.752v2.6h3.077v.813h-4.063v-7.563h4.063Z" transform="translate(-79.636 -181.403)" fill="#2e3550"/>
        <path id="Path_38" data-name="Path 38" d="M166.92,212.483c-1.517,0-2.59-.846-2.612-2.091h1.051a1.4,1.4,0,0,0,1.56,1.257c.953,0,1.517-.542,1.517-1.257,0-2.038-4.085-.737-4.085-3.543,0-1.247,1.008-2.092,2.5-2.092a2.259,2.259,0,0,1,2.5,1.939h-1.084a1.367,1.367,0,0,0-1.462-1.094c-.813-.022-1.452.4-1.452,1.214,0,1.95,4.074.737,4.074,3.532a2.263,2.263,0,0,1-2.513,2.135" transform="translate(-85.418 -181.308)" fill="#2e3550"/>
        <rect id="Rectangle_1733" data-name="Rectangle 1733" width="0.986" height="7.552" transform="translate(85.466 23.546)" fill="#2e3550"/>
        <path id="Path_39" data-name="Path 39" d="M190.057,207.055h-1.181a2.409,2.409,0,0,0-2.3-1.387,2.969,2.969,0,0,0,0,5.927,2.546,2.546,0,0,0,2.655-2.449h-3.012v-.8h4.063v.759a3.663,3.663,0,0,1-3.706,3.381,3.853,3.853,0,0,1,0-7.7,3.571,3.571,0,0,1,3.478,2.275" transform="translate(-95.024 -181.32)" fill="#2e3550"/>
        <path id="Path_40" data-name="Path 40" d="M207.043,204.938V212.5h-.986l-3.965-6.014V212.5h-.986v-7.563h.986l3.965,6v-6Z" transform="translate(-104.547 -181.402)" fill="#2e3550"/>
      </g>
    </g>
  </g>
</svg>
