<svg xmlns="http://www.w3.org/2000/svg" width="66" height="66" viewBox="0 0 66 66">
  <g id="Group_13" data-name="Group 13" transform="translate(18 18)">
    <rect id="Rectangle_120" data-name="Rectangle 120" width="66" height="66" rx="15" transform="translate(-18 -18)" fill="#38aecb"/>
    <path id="Path_15" data-name="Path 15" d="M17.505,29.229H12.53v-.42q0-4.059,0-8.117c0-.724-.14-.865-.853-.865H5.785c-.617,0-.792.172-.793.794q0,4.093,0,8.186v.42c-.153.009-.264.02-.375.02q-1.9,0-3.8,0c-.632,0-.814-.183-.814-.82Q0,14.625,0,.822C0,.185.183,0,.815,0Q8.761,0,16.707,0c.64,0,.814.175.814.815q0,14.026,0,28.051c0,.112-.01.223-.016.362M8.769,6.475c1.392,0,2.784,0,4.176,0,.473,0,.735-.286.659-.7-.055-.3-.3-.46-.7-.46q-4.142,0-8.284,0c-.123,0-.286,0-.359.069-.142.139-.32.329-.323.5a.83.83,0,0,0,.3.513c.088.082.278.074.423.074,1.369,0,2.739,0,4.108,0m-.007,4.593c1.392,0,2.784.008,4.175-.009a.747.747,0,0,0,.535-.209.764.764,0,0,0,.082-.6c-.085-.285-.369-.341-.646-.341q-4.141,0-8.282,0c-.47,0-.721.222-.713.6s.253.555.708.555H8.762m0,4.6h1.2c1.015,0,2.03,0,3.045,0a.554.554,0,0,0,.6-.681c-.053-.3-.269-.448-.7-.448q-4.139,0-8.279,0a1.494,1.494,0,0,0-.239.011.517.517,0,0,0-.471.5c-.036.373.209.617.638.618,1.4,0,2.805,0,4.208,0" transform="translate(0 0)" fill="#fff"/>
    <path id="Path_16" data-name="Path 16" d="M204.035,107.993v-.431q0-10.015,0-20.03a1.354,1.354,0,0,1,.114-.59c.145-.289.472-.341.836-.161.858.424,1.711.857,2.566,1.287,2.166,1.089,4.328,2.185,6.5,3.261a.893.893,0,0,1,.562.908q-.016,7.447-.007,14.894c0,.686-.171.862-.843.862q-4.674,0-9.348,0Zm5.29-4.549c.57,0,1.14,0,1.71,0,.414,0,.666-.22.667-.568a.578.578,0,0,0-.63-.58q-1.744-.018-3.489,0a.561.561,0,0,0-.623.611c.016.343.245.534.654.537.57,0,1.14,0,1.71,0m-.014-7.743c.582,0,1.163,0,1.745,0a.578.578,0,1,0,.03-1.151q-1.762-.019-3.524,0a.556.556,0,0,0-.6.6c.01.346.24.55.64.553.57,0,1.14,0,1.711,0m.011,2.729c-.57,0-1.14,0-1.71,0-.41,0-.638.194-.651.537a.546.546,0,0,0,.593.6q1.778.021,3.556,0a.571.571,0,1,0-.045-1.137c-.581,0-1.163,0-1.744,0" transform="translate(-185.363 -78.744)" fill="#fff"/>
  </g>
</svg>
