<svg xmlns="http://www.w3.org/2000/svg" width="66" height="66" viewBox="0 0 66 66">
  <g id="Group_2" data-name="Group 2" transform="translate(-1106.879 -1468)">
    <rect id="Rectangle_118" data-name="Rectangle 118" width="66" height="66" rx="15" transform="translate(1106.879 1468)" fill="#38aecb"/>
    <path id="Path_3" data-name="Path 3" d="M26.719,4.528Z" transform="translate(1121.872 1483)" fill="#fff"/>
    <path id="Path_4" data-name="Path 4" d="M19.343,4.05a5.19,5.19,0,0,0-2.665-.675,8.667,8.667,0,0,0-3.284.647,17.682,17.682,0,0,0-5.7,3.684,16.749,16.749,0,0,0-1.61,1.87c-.429.612.134,1.477-.429,2.039s-1.737,0-1.737,0a.372.372,0,0,0-.274.113l-2.4,2.384a.382.382,0,0,0,0,.548L5.709,19.1a.383.383,0,0,0,.274.112.372.372,0,0,0,.274-.112L8.592,16.65a.382.382,0,0,0,0-.548s-.373-.366-.851-.844.056-1.357.373-1.645A2.163,2.163,0,0,1,9.6,13.134a2.769,2.769,0,0,1,.8.127c.858.239,1.814,1.118,3.579,2.869l-.274.457a.609.609,0,0,0,.091.731s-.352-.345.921.921l3.516-3.319c-1.343-1.329-1.02-.991-1.02-.991a.643.643,0,0,0-.443-.162.63.63,0,0,0-.3.07l-.394.211c-1.969-1.955-2.482-2.827-2.412-4.338A5.008,5.008,0,0,1,15.813,6a5.8,5.8,0,0,1,4.261-1.069C20.637,4.929,19.779,4.331,19.343,4.05Z" transform="translate(1121.872 1483)" fill="#fff"/>
    <path id="Path_5" data-name="Path 5" d="M32.52,28.118s-4.845-4.022-9.155-8.135l-3.354,3.558c4.113,4.261,8.079,8.972,8.079,8.972a.383.383,0,0,0,.274.112.372.372,0,0,0,.274-.112l3.874-3.846A.388.388,0,0,0,32.52,28.118Z" transform="translate(1121.872 1483)" fill="#fff"/>
    <path id="Path_6" data-name="Path 6" d="M33.694,8.81l-3.684,3.7-3.593-.654L25.77,8.262l3.684-3.7A4.083,4.083,0,0,0,26.712,3.4a.9.9,0,0,0-.141.007,6.724,6.724,0,0,0-4.212,2.088,6.775,6.775,0,0,0-1.575,7.334,1.114,1.114,0,0,1-.19,1.385c-.105.1-.7.661-1.582,1.5-.253.239-.52.492-.816.773-.562.534-1.2,1.139-1.884,1.772-.267.253-.541.506-.816.773-4.008,3.783-8.923,8.4-8.923,8.4A2.96,2.96,0,0,0,6.567,31.7a3.15,3.15,0,0,0,2.2.9,2.692,2.692,0,0,0,2.074-.921s4.605-4.908,8.388-8.923c.26-.281.52-.548.773-.823.654-.7,1.266-1.343,1.814-1.92.274-.3.534-.57.773-.816.809-.858,1.357-1.434,1.477-1.547a1.088,1.088,0,0,1,.78-.359,1.352,1.352,0,0,1,.6.169,4.943,4.943,0,0,0,2.278.513A7.561,7.561,0,0,0,32.8,15.9a6.518,6.518,0,0,0,2.081-4.219A3.857,3.857,0,0,0,33.694,8.81ZM9.661,29.96a.984.984,0,1,1,0-1.392A.993.993,0,0,1,9.661,29.96Z" transform="translate(1121.872 1483)" fill="#fff"/>
  </g>
</svg>
