<svg xmlns="http://www.w3.org/2000/svg" width="70" height="70" viewBox="0 0 70 70">
  <g id="pintrest" transform="translate(-746 -887)">
    <rect id="Rectangle_1743" data-name="Rectangle 1743" width="70" height="70" rx="15" transform="translate(746 887)" fill="#38aecb"/>
    <g id="Group_7639" data-name="Group 7639" transform="translate(763 904)">
      <path id="pinterest" d="M35.389,25.694A17.7,17.7,0,0,1,12.457,42.6a19.89,19.89,0,0,0,2.2-4.638c.214-.828,1.1-4.21,1.1-4.21a4.739,4.739,0,0,0,4.053,2.033c5.337,0,9.183-4.909,9.183-11.009,0-5.843-4.773-10.217-10.909-10.217-7.634,0-11.694,5.123-11.694,10.709,0,2.6,1.384,5.829,3.589,6.857.335.157.514.086.592-.235.057-.243.357-1.448.492-2a.53.53,0,0,0-.121-.507,6.968,6.968,0,0,1-1.306-4.038,7.657,7.657,0,0,1,7.991-7.677c4.345,0,7.392,2.961,7.392,7.2,0,4.787-2.419,8.105-5.565,8.105a2.566,2.566,0,0,1-2.618-3.2c.5-2.1,1.463-4.374,1.463-5.893a2.222,2.222,0,0,0-2.24-2.49c-1.777,0-3.2,1.834-3.2,4.3a6.376,6.376,0,0,0,.528,2.626s-1.748,7.406-2.069,8.79a17.128,17.128,0,0,0-.064,5.08A17.7,17.7,0,1,1,35.389,25.694Z" transform="translate(0 -8)" fill="#fff"/>
    </g>
  </g>
</svg>
