<svg xmlns="http://www.w3.org/2000/svg" width="66" height="66" viewBox="0 0 66 66">
  <g id="Group_11" data-name="Group 11" transform="translate(18 18)">
    <rect id="Rectangle_119" data-name="Rectangle 119" width="66" height="66" rx="15" transform="translate(-18 -18)" fill="#38aecb"/>
    <path id="Path_11" data-name="Path 11" d="M5.563,110.216V98.5H17.275c-.075.1-.124.181-.181.25-.95,1.145-1.9,2.286-2.85,3.435a2.329,2.329,0,0,0-.342.542q-.968,2.235-1.918,4.478a2.029,2.029,0,0,0,.485,2.443,2.081,2.081,0,0,0,2.516.232c1.545-.877,3.082-1.766,4.629-2.64a5.43,5.43,0,0,0,1.369-1.4q2.988-3.53,5.948-7.083a.685.685,0,0,1,.6-.286c.69.019,1.38,0,2.07.008.607.006.832.241.832.853q0,9.511,0,19.022c0,.6-.246.852-.838.852q-12.52,0-25.04,0A4.107,4.107,0,0,1,1,117.615a4.581,4.581,0,0,1,2.885-7.376,8.4,8.4,0,0,1,1.227-.023c.137,0,.275,0,.446,0" transform="translate(-0.036 -89.954)" fill="#fff"/>
    <path id="Path_12" data-name="Path 12" d="M186.795,15.3l-3.868-2.9,2.45-2.922q3.492-4.162,6.988-8.32a4.435,4.435,0,0,1,.844-.791,2.042,2.042,0,0,1,2.418.072,5.433,5.433,0,0,1,.925.941,1.908,1.908,0,0,1-.168,2.565q-1.4,1.673-2.814,3.338L187,15.064c-.062.073-.129.142-.209.231" transform="translate(-167.114 0)" fill="#fff"/>
    <path id="Path_13" data-name="Path 13" d="M4.167,10.411v.441q0,8.571.007,17.143c0,.323-.095.427-.41.495A7.406,7.406,0,0,0,.649,29.822c-.215.169-.4.372-.648.6v-.329q0-7.7,0-15.4a4.311,4.311,0,0,1,3.271-4.17c.27-.06.551-.074.893-.118" transform="translate(0 -9.511)" fill="#fff"/>
    <path id="Path_14" data-name="Path 14" d="M153.726,156.79l3.578,2.683a1.478,1.478,0,0,1-.17.138q-2.052,1.19-4.107,2.375a.756.756,0,0,1-1-.1.544.544,0,0,1-.178-.691c.615-1.454,1.238-2.9,1.88-4.407" transform="translate(-138.669 -143.236)" fill="#fff"/>
  </g>
</svg>
