<svg xmlns="http://www.w3.org/2000/svg" xmlns:xlink="http://www.w3.org/1999/xlink" width="70" height="70" viewBox="0 0 70 70">
  <defs>
    <clipPath id="clip-path">
      <rect id="Rectangle_1727" data-name="Rectangle 1727" width="36" height="36" transform="translate(-0.49 -0.45)" fill="none"/>
    </clipPath>
  </defs>
  <g id="twitter" transform="translate(-525 -887)">
    <rect id="Rectangle_1741" data-name="Rectangle 1741" width="70" height="70" rx="15" transform="translate(525 887)" fill="#38aecb"/>
    <g id="Mask_Group_2" data-name="Mask Group 2" transform="translate(542.49 904.45)" clip-path="url(#clip-path)">
      <path id="twitter-2" data-name="twitter" d="M31.753,10.544c.022.315.022.629.022.943,0,9.588-7.3,20.636-20.636,20.636A20.5,20.5,0,0,1,0,28.868a15,15,0,0,0,1.752.089,14.526,14.526,0,0,0,9-3.1,7.267,7.267,0,0,1-6.782-5.03,9.146,9.146,0,0,0,1.37.113,7.672,7.672,0,0,0,1.909-.248,7.254,7.254,0,0,1-5.817-7.119v-.089a7.31,7.31,0,0,0,3.278.921,7.264,7.264,0,0,1-2.245-9.7A20.617,20.617,0,0,0,17.426,12.3a8.189,8.189,0,0,1-.18-1.661A7.26,7.26,0,0,1,29.8,5.671a14.28,14.28,0,0,0,4.6-1.752,7.233,7.233,0,0,1-3.189,4,14.541,14.541,0,0,0,4.177-1.123,15.591,15.591,0,0,1-3.638,3.75Z" transform="translate(-0.953 0.083)" fill="#fff"/>
    </g>
  </g>
</svg>
